<?xml version="1.0" encoding="utf-8"?>
<!-- Generator: Adobe Illustrator 14.0.0, SVG Export Plug-In . SVG Version: 6.00 Build 43363)  -->
<!DOCTYPE svg PUBLIC "-//W3C//DTD SVG 1.1//EN" "http://www.w3.org/Graphics/SVG/1.1/DTD/svg11.dtd">
<svg version="1.1" id="Layer_1" xmlns="http://www.w3.org/2000/svg" xmlns:xlink="http://www.w3.org/1999/xlink" x="0px" y="0px"
	 width="800px" height="600px" viewBox="0 0 800 600" enable-background="new 0 0 800 600" xml:space="preserve">
<g>
	<circle fill="none" stroke="#000000" stroke-width="10" cx="399.497" cy="299.686" r="28.657"/>
	<g>
		<g id="XMLID_3_">
			<g>
				<path d="M458.071,256.295c3.828,5.142-5.394,18.945-20.574,33.945c-0.112-1.997-0.42-3.972-0.933-5.871
					c6.886-8.458,9.926-15.421,7.421-18.78c-2.519-3.411-10.229-2.459-20.514,1.822c-1.047-0.605-2.128-1.123-3.226-1.579
					C438.741,255.87,454.308,251.206,458.071,256.295z"/>
				<path d="M373.095,330.803c1.953,0.954,3.972,1.661,6.045,2.189c-18.644,9.998-34.669,15.202-38.31,10.295
					c-3.363-4.516,4.574-16.643,17.59-30.248c0.306,1.168,0.686,2.317,1.152,3.416c-4.945,6.845-6.866,12.379-4.721,15.271
					C357.194,334.881,363.951,334.288,373.095,330.803z"/>
			</g>
			<g>
				<path fill="none" stroke="#000000" d="M373.095,330.803c-9.144,3.485-15.901,4.078-18.243,0.923
					c-2.145-2.892-0.225-8.426,4.721-15.271"/>
				<path fill="none" stroke="#000000" d="M423.472,267.411c10.284-4.281,17.995-5.233,20.514-1.822
					c2.505,3.359-0.535,10.321-7.421,18.78"/>
				<path fill="none" stroke="#000000" d="M379.14,332.992c-18.644,9.998-34.669,15.202-38.31,10.295
					c-3.363-4.516,4.574-16.643,17.59-30.248"/>
				<path fill="none" stroke="#000000" d="M420.246,265.833c18.495-9.963,34.062-14.627,37.825-9.538
					c3.828,5.142-5.394,18.945-20.574,33.945"/>
			</g>
		</g>
	</g>
	<circle fill="none" stroke="#000000" stroke-width="10" cx="399.495" cy="299.685" r="28.657"/>
	<g>
		<g id="XMLID_5_">
			<g>
				<path d="M443.994,265.586c-2.526-3.405-10.244-2.46-20.528,1.82c-1.055-0.599-2.136-1.117-3.228-1.564
					c18.495-9.963,34.062-14.627,37.842-9.549c3.819,5.147-5.401,18.95-20.583,33.95c-0.118-2.004-0.42-3.972-0.932-5.871
					C443.442,275.919,446.49,268.951,443.994,265.586z"/>
				<path d="M373.096,330.807c1.947,0.945,3.963,1.666,6.044,2.188c-18.644,9.998-34.674,15.194-38.309,10.295
					c-3.355-4.521,4.582-16.648,17.59-30.247c0.306,1.167,0.694,2.312,1.152,3.415c-4.951,6.837-6.866,12.379-4.729,15.276
					C357.194,334.885,363.945,334.283,373.096,330.807z"/>
			</g>
			<g>
				<path fill="none" stroke="#000000" d="M373.096,330.807c-9.15,3.477-15.901,4.078-18.251,0.928
					c-2.137-2.897-0.223-8.439,4.729-15.276"/>
				<path fill="none" stroke="#000000" d="M423.466,267.406c10.284-4.281,18.002-5.225,20.528-1.82
					c2.496,3.365-0.552,10.333-7.429,18.786"/>
				<path fill="none" stroke="#000000" d="M379.14,332.995c-18.644,9.998-34.674,15.194-38.309,10.295
					c-3.355-4.521,4.582-16.648,17.59-30.247"/>
				<path fill="none" stroke="#000000" d="M420.238,265.842c18.495-9.963,34.062-14.627,37.842-9.549
					c3.819,5.147-5.401,18.95-20.583,33.95"/>
			</g>
		</g>
	</g>
	<path stroke="#000000" d="M427.387,339.896c-2.248,1.696-4.348,2.706-4.689,2.253L409,324c-0.342-0.453,1.205-2.195,3.453-3.893
		l0,0c2.248-1.697,4.348-2.706,4.689-2.253l13.697,18.148C431.182,336.455,429.636,338.198,427.387,339.896L427.387,339.896z"/>
</g>
</svg>
